<svg xmlns="http://www.w3.org/2000/svg" viewBox="0 0 141.73 88.09"><path d="M13.54,65.58h-2.4l-5-4.08L4.49,62.62v3H1.76V63.51h.67V57.72H1.76V55.65H4.49v4.57l6.69-4.57h2.36v2.07H11.8L8,60.29c1.28,1.07,2.51,2.14,3.8,3.22h1.76Z" fill="#fab856"/><path d="M16,57.72h-.67V55.65h3.41v2.07h-.65v5.79h.65v2.07H15.37V63.51H16Z" fill="#fab856"/><path d="M33.22,57.72h-.68v7.86H30.71l-7.25-6.86v6.86H20.75V63.51h.65V57.72h-.65V55.65h2.59l7.12,6.74V55.65h2.76Z" fill="#fab856"/><path d="M46.15,65.58H37.37A2.07,2.07,0,0,1,35,63.23V58a2.07,2.07,0,0,1,2.35-2.34h8.78v2.74H44.09v-.67H37.6a.47.47,0,0,0-.51.52V63a.47.47,0,0,0,.51.52h6.49v-2H41V59.45h5.17Z" fill="#fab856"/><path d="M48,55.65H50v3.87H48Z" fill="#fab856"/><path d="M62.58,55.65v2.74H60.51v-.67H54.4a.46.46,0,0,0-.52.52V59c0,.37.2.5.52.5h6.41a2.08,2.08,0,0,1,2.33,2.36v1.42a2.07,2.07,0,0,1-2.33,2.35h-9V62.84H53.9v.67h6.68a.47.47,0,0,0,.5-.52v-.94a.46.46,0,0,0-.5-.51H54.15a2.06,2.06,0,0,1-2.33-2.35V58a2.06,2.06,0,0,1,2.33-2.34Z" fill="#fab856"/><path d="M71.4,58.39V55.65H83.16v2.74H81.08v-.67H78.31v7.86H76.24V57.72H73.47v.67Z" fill="#fab856"/><path d="M94.07,55.65A2.07,2.07,0,0,1,96.43,58v5.24a2.08,2.08,0,0,1-2.36,2.35H86.94a2.08,2.08,0,0,1-2.36-2.35V58a2.07,2.07,0,0,1,2.36-2.34Zm-.22,7.86a.47.47,0,0,0,.51-.52V58.24a.47.47,0,0,0-.51-.52H87.17a.47.47,0,0,0-.53.52V63a.48.48,0,0,0,.53.52Z" fill="#fab856"/><path d="M101,55.65V63a.48.48,0,0,0,.52.52h6A.47.47,0,0,0,108,63V55.65h2.74v2.07H110v5.51a2.07,2.07,0,0,1-2.33,2.35h-6.44a2.08,2.08,0,0,1-2.36-2.35V57.72h-.66V55.65Z" fill="#fab856"/><path d="M114.57,63a.47.47,0,0,0,.51.52h6.48v-.67h2.06v2.74h-8.78a2.07,2.07,0,0,1-2.35-2.35V58a2.07,2.07,0,0,1,2.35-2.34h8.78v2.74h-2.06v-.67h-6.48a.46.46,0,0,0-.51.52Z" fill="#fab856"/><path d="M126.08,57.72h-.65V55.65h2.71v3.8h7v-3.8h2.74v2.07h-.67v5.79h.67v2.07h-2.74v-4h-7v4h-2.71V63.51h.65Z" fill="#fab856"/><path d="M118.82,72.63H106.59a.21.21,0,0,1-.22-.21.22.22,0,0,1,.22-.22h12.23a.21.21,0,0,1,.21.22A.21.21,0,0,1,118.82,72.63Z" fill="#fff"/><path d="M33.05,72.63H20.82a.21.21,0,0,1-.21-.21.21.21,0,0,1,.21-.22H33.05a.22.22,0,0,1,.22.22A.21.21,0,0,1,33.05,72.63Z" fill="#fff"/><path d="M41.47,74a.51.51,0,0,0,.56.56h4.23v-.42h.8v1.22H41.88a1.07,1.07,0,0,1-1.21-1.21V70.93a1.07,1.07,0,0,1,1.21-1.21h5.18v1.22h-.8v-.42H42a.51.51,0,0,0-.56.56Z" fill="#fff"/><path d="M50.89,70.52h-.41v-.8h1.21v2.35h4.79V69.72h1.21v.8h-.41v4h.41v.8H56.48V72.88H51.69v2.49H50.48v-.8h.41Z" fill="#fff"/><path d="M62.32,69.72V74a.5.5,0,0,0,.55.56h3.69a.5.5,0,0,0,.55-.56V69.72h1.21v.8h-.41v3.64a1.07,1.07,0,0,1-1.21,1.21h-4a1.07,1.07,0,0,1-1.21-1.21V70.52h-.41v-.8Z" fill="#fff"/><path d="M77.33,69.72a1.07,1.07,0,0,1,1.21,1.21v.74a1.07,1.07,0,0,1-1.21,1.21H75.6l2,1.69h1v.8H77.39l-3-2.49H73v2.49H71.73v-.8h.42v-4h-.42v-.8ZM73,72.07h4.24a.5.5,0,0,0,.55-.55v-.44a.5.5,0,0,0-.55-.56H73Z" fill="#fff"/><path d="M82.75,74a.51.51,0,0,0,.56.56h4.23v-.42h.8v1.22H83.16A1.07,1.07,0,0,1,82,74.16V70.93a1.07,1.07,0,0,1,1.21-1.21h5.18v1.22h-.8v-.42H83.31a.51.51,0,0,0-.56.56Z" fill="#fff"/><path d="M92.17,70.52h-.41v-.8H93v2.35h4.79V69.72H99v.8h-.41v4H99v.8H97.76V72.88H93v2.49H91.76v-.8h.41Z" fill="#fff"/><path d="M69.7,25.86a2.63,2.63,0,1,0-2.62-2.63A2.63,2.63,0,0,0,69.7,25.86Zm0-1.6a1,1,0,1,1,1-1A1,1,0,0,1,69.7,24.26Z" fill="#fab856"/><path d="M75.79,25.21a1.75,1.75,0,1,0-1.74-1.74A1.75,1.75,0,0,0,75.79,25.21ZM75,23.47a.81.81,0,1,1,.8.8A.8.8,0,0,1,75,23.47Z" fill="#fab856"/><path d="M64,25.21a1.75,1.75,0,1,0-1.74-1.74A1.75,1.75,0,0,0,64,25.21Zm-.8-1.74a.81.81,0,1,1,.8.8A.8.8,0,0,1,63.21,23.47Z" fill="#fab856"/><path d="M81.72,29.6a4.47,4.47,0,0,0-5-3.53,4.53,4.53,0,0,0-1.34.4A4.48,4.48,0,0,0,69.74,28l0,0a4.24,4.24,0,0,0-.58-.69,4.37,4.37,0,0,0-3.76-1.25,4.25,4.25,0,0,0-1.23.35,4.49,4.49,0,0,0-5.46,1.45,4.61,4.61,0,0,0-.78,3.56,6.13,6.13,0,0,0,1,2.59,9.05,9.05,0,0,0,.75,1l.13.14h2.27l-.74-.73L61,34a5.77,5.77,0,0,1-1.36-2.28,3.43,3.43,0,0,1,0-2.2,2.73,2.73,0,0,1,2.28-1.85,3.58,3.58,0,0,1,.65,0l-.18.23a4.66,4.66,0,0,0-.79,3.56,6.28,6.28,0,0,0,1,2.59,8.49,8.49,0,0,0,.75,1l.13.14h2.27L65,34.39c-.13-.12-.26-.26-.38-.39a5.77,5.77,0,0,1-1.36-2.28,3.43,3.43,0,0,1,0-2.2,2.84,2.84,0,0,1,1.09-1.41,2.88,2.88,0,0,1,.31-.17l.32-.13a3.52,3.52,0,0,1,.56-.14,2.84,2.84,0,0,1,3.07,1.76L69.71,32l.6-1.44c.15-.37.3-.72.46-1.08a2.86,2.86,0,0,1,3.75-1.59,3.11,3.11,0,0,1,.33.15l.28.18a2.85,2.85,0,0,1,1.07,1.58,3.87,3.87,0,0,1-.31,2.59,6.54,6.54,0,0,1-1.36,1.89l-.11.12-.81.77h2.31l.13-.14a7.71,7.71,0,0,0,1.35-2.07,5.61,5.61,0,0,0,.41-3.32,4.26,4.26,0,0,0-.91-1.93,2.84,2.84,0,0,1,3.2,2.09,3.81,3.81,0,0,1-.31,2.59,6.68,6.68,0,0,1-1.35,1.89l-.08.08-.81.81h2.27L80,35a7.76,7.76,0,0,0,1.36-2.07A5.61,5.61,0,0,0,81.72,29.6Z" fill="#fab856"/><rect x="60.34" y="36.43" width="18.88" height="1.59" fill="#fab856"/><rect x="60.34" y="39.24" width="18.88" height="1.59" fill="#fab856"/><path d="M69.82,12.71a18,18,0,1,0,18,18A18,18,0,0,0,69.82,12.71Zm0,34.3A16.29,16.29,0,1,1,86.11,30.72,16.31,16.31,0,0,1,69.82,47Z" fill="#fab856"/><path d="M69.82,45.84A15.12,15.12,0,1,1,84.94,30.72,15.13,15.13,0,0,1,69.82,45.84Zm0-30.13a15,15,0,1,0,15,15A15,15,0,0,0,69.82,15.71Z" fill="#fab856"/></svg>