<svg id="Layer_1" data-name="Layer 1" xmlns="http://www.w3.org/2000/svg" viewBox="0 0 85.04 85.04"><path d="M12.54,84.68a3.65,3.65,0,0,0-.31-.24,1.67,1.67,0,0,1,.82-3.06,56.36,56.36,0,0,0,11.63-2.44A31.28,31.28,0,0,0,34.39,74a12.28,12.28,0,0,0,4.4-6.29c1-3.22,1.89-6.44,1.58-9.83a22.11,22.11,0,0,0-1.07-4.35,10.53,10.53,0,0,0-1.13-2.28,9.68,9.68,0,0,1-1-6.44c.38-3.08.72-6.15,1.07-9.23A1.53,1.53,0,0,0,37,33.89,1.43,1.43,0,0,0,35.28,35c-.45,1.47-.8,3-1.17,4.45-.72,2.92-1.41,5.85-2.13,8.77a1.69,1.69,0,0,1-2,1.48,1.71,1.71,0,0,1-1.23-2.24c1-4.26,2.05-8.51,3.11-12.76a5.25,5.25,0,0,1,3.7-4.05,1,1,0,0,0,.52-.55c1.49-4,3-7.94,4.44-11.92.4-1.08.15-1.79-.67-2.17a1.76,1.76,0,0,0-2.39.77,1.68,1.68,0,0,1-2.41.81,1.72,1.72,0,0,1-.47-2.46A5,5,0,0,1,42,13.41a.82.82,0,0,0,1.13,0,5,5,0,0,1,7.39,1.8Q57,29.76,63.25,44.4a32,32,0,0,1,2.15,12c.06,2.74,0,5.49,0,8.27l5.73,1.42c.42.11.85.2,1.27.34a1.64,1.64,0,0,1-.87,3.17q-4-.93-7.9-1.93a1.72,1.72,0,0,1-1.35-1.9c-.09-3.46-.2-6.91-.27-10.37A34.71,34.71,0,0,0,58.8,42.06q-5.52-12.51-11.1-25a1.7,1.7,0,0,0-1.83-1.23,1.47,1.47,0,0,0-1.42,2c.76,2.2,1.58,4.38,2.39,6.56.67,1.82,1.37,3.64,2,5.46a1.21,1.21,0,0,0,.86.85,4.87,4.87,0,0,1,3.32,3.59c1.13,4.4,2.19,8.81,3.26,13.23a1.66,1.66,0,1,1-3.24.7Q51.51,41.94,50,35.6a3.65,3.65,0,0,0-.35-.92,1.37,1.37,0,0,0-1.71-.76,1.52,1.52,0,0,0-1.08,1.65c.28,2.59.59,5.17.87,7.76.14,1.25.25,2.51.33,3.77A7.7,7.7,0,0,1,47,51a31.93,31.93,0,0,0-2,4.58c-.88,3-.39,6.09.34,9.09.32,1.33.73,2.64,1.15,3.94a11.15,11.15,0,0,0,2.75,4.24,1.65,1.65,0,0,1-.74,2.89,1.75,1.75,0,0,1-1.68-.62,14.91,14.91,0,0,1-4-7c-.07-.23-.13-.47-.21-.71,0,0-.06-.08-.17-.21a7.26,7.26,0,0,0-.28.75,16.06,16.06,0,0,1-7.13,9.71A41.4,41.4,0,0,1,20.55,83.5c-2,.44-4,.69-6,1a4.94,4.94,0,0,0-.55.15Zm30-32.14c.53-1,.92-1.95,1.42-2.79a6.23,6.23,0,0,0,.71-4c-.36-3.13-.73-6.26-1.09-9.39a5.05,5.05,0,0,1,1-3.89c.37-.47.77-.91,1.23-1.46l-3.21-8.6-3.28,8.8c1.9,1.63,2.49,2.9,2.26,5-.35,3.13-.78,6.26-1.06,9.39a8.32,8.32,0,0,0,.29,3.22A29,29,0,0,0,42.51,52.54Z"/><path d="M70.85,84.68c-1.31-.22-2.64-.38-3.94-.68q-3.78-.89-7.55-1.91A1.57,1.57,0,0,1,58.14,80,1.63,1.63,0,0,1,60.37,79a54.4,54.4,0,0,0,11.22,2.37c.9.09,1.67.33,1.93,1.33s-.35,1.52-1,2Z"/><path d="M19.6,64.65c0-2.31,0-4.64,0-7A41.49,41.49,0,0,1,23.48,40c1.83-4,3.58-8.12,5.37-12.18.51-1.15,1.41-1.57,2.34-1.13s1.19,1.34.67,2.52q-3.11,7.17-6.21,14.32a35.76,35.76,0,0,0-2.74,13.77c-.06,2.86-.11,5.71-.17,8.56a1.7,1.7,0,0,1-1.46,1.82c-2.54.64-5.1,1.26-7.65,1.87a1.65,1.65,0,1,1-.81-3.19c1.94-.5,3.88-1,5.82-1.45C18.9,64.86,19.16,64.78,19.6,64.65Z"/><path d="M25.33,5a3.59,3.59,0,0,1,1.07.87c1,1.5,1.83,3.05,2.69,4.6a1.64,1.64,0,0,1-.59,2.28,1.62,1.62,0,0,1-2.27-.63c-.91-1.52-1.81-3.06-2.66-4.62A1.7,1.7,0,0,1,25.33,5Z"/><path d="M59.73,5c1.51,0,2.38,1.25,1.8,2.36-.87,1.67-1.84,3.29-2.82,4.9a1.56,1.56,0,0,1-2.17.49,1.58,1.58,0,0,1-.65-2.13c.9-1.66,1.83-3.3,2.83-4.89A2.89,2.89,0,0,1,59.73,5Z"/><path d="M16.68,23.91a5.59,5.59,0,0,1-.86-.34c-1.45-.82-2.9-1.65-4.33-2.5a1.68,1.68,0,0,1-.77-2.36,1.66,1.66,0,0,1,2.41-.52q2.25,1.27,4.47,2.59a1.61,1.61,0,0,1,.8,1.89A1.78,1.78,0,0,1,16.68,23.91Z"/><path d="M74.53,19.9A3.7,3.7,0,0,1,73.68,21c-1.5.95-3.05,1.82-4.6,2.68a1.64,1.64,0,0,1-2.28-.59,1.61,1.61,0,0,1,.63-2.26c1.52-.92,3.06-1.82,4.62-2.66C73.24,17.47,74.56,18.27,74.53,19.9Z"/><path d="M74.87,35.43c.91,0,1.82,0,2.72,0A1.61,1.61,0,0,1,79.25,37a1.63,1.63,0,0,1-1.64,1.69q-2.72,0-5.43,0a1.64,1.64,0,1,1,.06-3.28h2.63Z"/><path d="M10.12,35.43c.9,0,1.81,0,2.71,0A1.63,1.63,0,0,1,14.49,37a1.65,1.65,0,0,1-1.66,1.68q-2.72,0-5.43,0a1.64,1.64,0,0,1,0-3.28h2.72Z"/><path d="M44.16,4.67c0,.88,0,1.76,0,2.63a1.64,1.64,0,1,1-3.28,0c0-1.76,0-3.51,0-5.27a1.64,1.64,0,1,1,3.28,0C44.18,2.91,44.16,3.79,44.16,4.67Z"/><path d="M33.23,23.86a1.74,1.74,0,0,1-1.69-1.67,1.67,1.67,0,0,1,3.33-.05A1.72,1.72,0,0,1,33.23,23.86Z"/><path d="M55.25,77.92a1.63,1.63,0,0,1-1.68,1.64,1.71,1.71,0,0,1-1.63-1.71,1.65,1.65,0,0,1,1.66-1.58A1.6,1.6,0,0,1,55.25,77.92Z"/></svg>