<svg id="Layer_1" data-name="Layer 1" xmlns="http://www.w3.org/2000/svg" viewBox="0 0 85.04 85.04"><path d="M52,.83a19.24,19.24,0,0,1,2.15.69A7.92,7.92,0,0,1,59,8.37a37,37,0,0,1-.12,6.9,17.4,17.4,0,0,1-1.31,3.79,12.25,12.25,0,0,1,8.18,5.33c2,3,2.14,6.41,1.92,10,.42,0,.75,0,1.09,0a30.55,30.55,0,0,1,4.7.18A4.69,4.69,0,0,1,77.2,40a4.88,4.88,0,0,1-4.69,4.18l-.56,0v.91c0,2.09,0,4.18,0,6.27,0,1.29-.64,1.93-1.9,1.89a1.78,1.78,0,0,0-1.48.64,14.77,14.77,0,0,0-4.21,10.44c0,5.94,0,11.89,0,17.83,0,1.51-.53,2-2.05,2H22.79c-1.58,0-2.09-.51-2.09-2.09,0-5.89,0-11.78,0-17.67a14.89,14.89,0,0,0-4.24-10.6,1.74,1.74,0,0,0-1.42-.6c-1.31,0-1.92-.59-1.93-1.94,0-2.06,0-4.12,0-6.19v-.89A13,13,0,0,1,11.45,44a4.88,4.88,0,0,1,1.17-9.6c1.52,0,3,0,4.66,0V31.52c0-.84.07-1.69,0-2.52a2.92,2.92,0,0,1,1.2-2.84A1.25,1.25,0,0,0,19,24.58a4.49,4.49,0,0,1,1.17-4.65c1.25-1.32,2.54-2.6,3.85-3.86A4.89,4.89,0,0,1,30.91,23c-1.27,1.34-2.58,2.64-3.91,3.91A4.78,4.78,0,0,1,22.17,28a1.29,1.29,0,0,0-1.62,1c0,1.76,0,3.52,0,5.32H33.81c0-.6,0-1.21,0-1.82a14.31,14.31,0,0,1,.82-5.84,12.06,12.06,0,0,1,8.8-7.47l.57-.15a14.07,14.07,0,0,1-1.31-3.69,35.49,35.49,0,0,1,.11-8.18C43.37,3.87,45.73,1.86,49,1c.17,0,.34-.12.52-.18ZM64.71,53.32H20.44c0,.08,0,.11,0,.13s.14.23.22.34A18.06,18.06,0,0,1,24,64.48c0,5.18,0,10.36,0,15.54v.89H37.58V74.76H34.27c-1.4,0-2-.58-2-2V66.94c0-1.36.58-1.94,1.92-2h3.45V61.56c0-1.37.56-1.94,1.91-1.94h5.94c1.35,0,1.91.57,1.92,1.93V65h3.52a1.64,1.64,0,0,1,1.84,1.86c0,2,0,4,0,6a1.68,1.68,0,0,1-1.91,1.89h-3.4V80.9H61.09V80c0-5.32,0-10.64,0-16a21.07,21.07,0,0,1,.44-3.78A17.47,17.47,0,0,1,64.71,53.32Zm3.87-9.17H50.3a3,3,0,0,1-1-.1,1.61,1.61,0,0,1-1.08-1.72,1.66,1.66,0,0,1,1.79-1.42H71.62a6.76,6.76,0,0,0,.9,0A1.61,1.61,0,0,0,74,39.28a1.63,1.63,0,0,0-1.42-1.62,5.62,5.62,0,0,0-.82,0H13.28a4.36,4.36,0,0,0-.81,0,1.61,1.61,0,0,0,0,3.19,5.3,5.3,0,0,0,.89,0H34.62c.25,0,.49,0,.73,0A1.63,1.63,0,1,1,35,44.14H16.49V50H68.58ZM36.94,34.32H64.46c1-9.64-5-12.93-12-12v2.56c1.22.26,1.72.71,1.77,1.59s-.35,1.41-1.78,1.88c-.13,2-.57,2.78-1.66,2.74-.38,0-.94-.18-1.08-.44a17,17,0,0,1-.82-2.38c-1.06-.26-1.64-.81-1.63-1.68s.56-1.4,1.82-1.73V22.2c-1.08,0-2.1,0-3.13,0-4,.12-7.39,2.43-8.39,6.13A37.23,37.23,0,0,0,36.94,34.32ZM41,62.9a1.48,1.48,0,0,0-.05.25c0,1,0,1.95,0,2.93,0,1.67-.49,2.17-2.18,2.17H35.6V71.5c1.21,0,2.38,0,3.54,0a1.59,1.59,0,0,1,1.75,1.77c0,1.76,0,3.53,0,5.29V80.9h3.27c0-2.5,0-4.94,0-7.37,0-1.49.52-2,2-2h3.31V68.25H46.1c-1.35,0-1.94-.59-1.94-1.93,0-1.13,0-2.26,0-3.42ZM56,11.51H45.77c0,.87,0,1.68,0,2.49a5.06,5.06,0,0,0,4.38,4.89,4.9,4.9,0,0,0,5.38-3.48A25.47,25.47,0,0,0,56,11.51Zm-.28-3.37a5,5,0,0,0-5.27-4c-2.31.25-4.44,2.19-4.39,4ZM27.52,17.81a4.76,4.76,0,0,0-1.15.55c-1.34,1.29-2.68,2.6-4,3.95a1.49,1.49,0,0,0,.09,2.13,1.43,1.43,0,0,0,2.05.17c1.42-1.33,2.79-2.72,4.13-4.13a1.24,1.24,0,0,0,.09-1.65A6.55,6.55,0,0,0,27.52,17.81Z"/><path d="M42.57,44.14a1.62,1.62,0,1,1,0-3.24,1.62,1.62,0,0,1,0,3.24Z"/></svg>