<svg id="Layer_1" data-name="Layer 1" xmlns="http://www.w3.org/2000/svg" viewBox="0 0 85.04 85.04"><path d="M81.76,32a1.84,1.84,0,0,1-1.81.64c-2.78-.31-5.57-.54-8.36-.81a1.25,1.25,0,0,1-1.27-1.26,1.18,1.18,0,0,1,1.43-1c2.94.26,5.89.52,8.82.85.42,0,.8.46,1.19.7Z"/><path d="M66.51,44.35,43.81,49.3a4.1,4.1,0,0,1,.92,3.54,3.93,3.93,0,0,1,2.68,4.42c2.13,1,2.91,2.21,2.77,4.15-.09,1.29-.09,1.29.72,2.24a3.65,3.65,0,0,1-.66,5.5c-1.31.91-2.71,1.71-4.11,2.51a8.08,8.08,0,0,1-1.44.46,6.86,6.86,0,0,0-1.27.46,26.54,26.54,0,0,0-2.82,1.68,8,8,0,0,1-7.06,1.18A6.05,6.05,0,0,0,30.87,75c-.75.18-1.37,1-2,1.65a3.39,3.39,0,0,0-.76,1.15,5.35,5.35,0,0,1-4.73,3.38c-5.61,0-11.23,0-16.85,0-1.78,0-3.41-1-3.25-3.24a28.25,28.25,0,0,0,0-2.91,2.76,2.76,0,0,1,1.07-2.34q5.49-4.35,11-8.68a1.39,1.39,0,0,1,1-.33c.7.26,1.05-.16,1.47-.52a8.75,8.75,0,0,1,1.06-.87,2.12,2.12,0,0,1,1.19-.38,1.19,1.19,0,0,0,1.24-.53c1.06-1.53,2.07-3.08,3.13-4.67l-.57-.42a16.6,16.6,0,0,1-2.74,1,2.7,2.7,0,0,1-2.8-1.34c-1-1.55-2-3.1-2.89-4.69a3.1,3.1,0,0,1,1.24-4.4,1.36,1.36,0,0,0,.81-1.5,3.57,3.57,0,0,1,1.61-3.35,15.33,15.33,0,0,1,1.68-1.06,1.15,1.15,0,1,1,1.2,2c-.43.31-.91.56-1.35.87a1.62,1.62,0,0,0-.57,2.38c1.62,2.69,3.28,5.35,4.94,8a4.38,4.38,0,0,0,.75.72c2.05-4,5.46-6.12,9.58-7.44l-5.7-9.24-2.15,1.33c-.26.16-.52.33-.79.47a1.19,1.19,0,0,1-1.63-.31A1.13,1.13,0,0,1,25.55,38c.85-.56,1.76-1,2.59-1.63a10.35,10.35,0,0,0,2-1.75q8.4-10.33,16.77-20.71A.85.85,0,0,0,47,12.63,3.4,3.4,0,0,1,46.23,10c.18-1.35,3.3-3.38,4.76-2.81a3.59,3.59,0,0,1,1.79,1.6L68.4,34.1q2.25,3.65,4.49,7.29c1.27,2.06,1,3.36-1.13,4.63a9.36,9.36,0,0,1-1.06.61,2.59,2.59,0,0,1-3.16-.75C67.17,45.42,66.88,44.91,66.51,44.35Zm-1.28-2.11L62.86,38.4q-4.9-7.95-9.8-15.89c-.54-.87-.47-1.54.17-1.93s1.28-.13,1.82.73l1.56,2.54q6.16,10,12.34,20c.15.25.47.67.56.64a6.71,6.71,0,0,0,1.64-.9c.11-.08-.05-.64-.21-.91Q61,26.49,51,10.3c-.65-1.05-.65-1.05-1.72-.38l-.07,0c-.7.3-.79.68-.35,1.35,1,1.57,2,3.2,3,4.8a1.26,1.26,0,0,1,.09,1.56,1.15,1.15,0,0,1-2-.19c-.45-.67-.85-1.36-1.32-2.11L31.49,36.61c2.28,3.71,4.55,7.37,6.8,11,.22.36.44.36.82.28q10.81-2.37,21.64-4.71ZM31.94,60.51c-.28.23-.48.4-.68.55a6.54,6.54,0,0,1-.69.48,1.16,1.16,0,0,1-1.64-.23,1.18,1.18,0,0,1,.28-1.63,5.56,5.56,0,0,1,.54-.42,4.47,4.47,0,0,0,1.94-3,1.86,1.86,0,0,1,1.73-1.65,3,3,0,0,1,3.09,1.22c.44.59.78,1.25,1.18,1.87s1.07.86,2,.31,1.16-1.13.68-1.92q-1.48-2.51-3-5a2.3,2.3,0,0,0-3.43-.79c-.9.53-1.76,1.12-2.67,1.64A6.46,6.46,0,0,0,29,54.14q-2.45,3.75-5,7.46c-.5.75-1.07,1.45-1.68,2.27,0-.12,0-.06,0,0q3.42,4.07,6.86,8.14a.91.91,0,0,0,.5.27c1.67.35,3.35.67,5,1a4.47,4.47,0,0,0,3-.11c1.3-.64,2.52-1.42,3.76-2.13-.18-.78-.74-.85-1.3-.91a4.7,4.7,0,0,1-3.54-2.27C35.8,66.6,35,65.32,34.2,64.05ZM25.56,77.25,16.24,66.31a2,2,0,0,0-.28.15c-3.31,2.61-6.62,5.21-9.91,7.85a1.49,1.49,0,0,0-.44,1c-.06.81,0,1.63,0,2.45,0,1,.06,1.08,1.09,1.08,5.41,0,10.83-.06,16.24,0A2.58,2.58,0,0,0,25.56,77.25ZM40.89,66.63A3.82,3.82,0,0,1,39,62.5a4.16,4.16,0,0,1-2.48-2c-.53-1-1.1-2-1.68-3a3.32,3.32,0,0,0-.7-.64,2.27,2.27,0,0,0,0,2.89c1.48,2.14,2.81,4.37,4.2,6.56a5.26,5.26,0,0,0,.69.92C40,68.17,40.54,68,40.89,66.63Zm7-5.33c0-1.36-1.12-2.12-2.06-1.61-1.38.74-2.72,1.58-4,2.45a1.4,1.4,0,0,0-.35,1.91,1.41,1.41,0,0,0,1.93.5c1.26-.73,2.51-1.46,3.72-2.27A3.58,3.58,0,0,0,47.9,61.3ZM18.65,65.55c2.76,3.24,5.48,6.44,8.24,9.66l1.13-1-8.18-9.73Zm25.67,4.28a.9.9,0,0,0,.37,0c1.48-.9,3-1.77,4.41-2.73a1.32,1.32,0,0,0,.15-1.75,1.36,1.36,0,0,0-1.69-.51c-1.41.8-2.81,1.65-4.17,2.55A1.23,1.23,0,0,0,43,68.91,1.37,1.37,0,0,0,44.32,69.83ZM22.4,54.23l-3.68-6c-.33.2-.62.36-.89.55a.84.84,0,0,0-.3,1.25c.9,1.48,1.8,3,2.72,4.41a.84.84,0,0,0,1.25.31C21.78,54.63,22.06,54.45,22.4,54.23Zm20.25,1.23a3.78,3.78,0,0,1-.56,3.68,4.73,4.73,0,0,0,.5-.26c.59-.35,1.19-.7,1.76-1.08a1.45,1.45,0,0,0,.5-2.11C44.36,55,43.56,54.88,42.65,55.46ZM39.89,50.9l1.52,2.47c1-.61,1.33-1.39.88-2.17S41,50.26,39.89,50.9Z"/><path d="M65.54,5.05c-.07.21-.11.44-.2.65-1,2.7-2.09,5.41-3.15,8.1-.34.87-1,1.18-1.66.83A1.08,1.08,0,0,1,60,13.22c1.09-2.85,2.19-5.7,3.31-8.53A1,1,0,0,1,64.6,4c.4.15.71.6,1.06.91Z"/><path d="M73.63,18.53a3.31,3.31,0,0,1-.66.79q-3,1.89-6,3.72a1.16,1.16,0,0,1-1.62-.3,1.1,1.1,0,0,1,.41-1.64c2-1.28,4.05-2.54,6.11-3.77C72.68,16.82,73.63,17.35,73.63,18.53Z"/></svg>