<svg id="Layer_1" data-name="Layer 1" xmlns="http://www.w3.org/2000/svg" viewBox="0 0 85.04 85.04"><path d="M5.26,82.59A1.26,1.26,0,0,1,4.54,81c.24-.73.85-.8,1.52-.8,2,0,4,0,6.1,0v-1c-.05-6.78-.08-13.56-.17-20.34a3.39,3.39,0,0,1,1.94-3.44c.69-.35,1.33-.8,2-1.19a1.22,1.22,0,0,1,1.78.35,1.17,1.17,0,0,1-.53,1.66c-.74.48-1.54.88-2.26,1.39a1.2,1.2,0,0,0-.52.84q0,10.71.12,21.44a1.22,1.22,0,0,0,.06.21H26.87V50.56l-2.21,1.3-3.15,1.88c-.78.45-1.47.33-1.84-.3s-.16-1.26.64-1.74c2-1.2,4-2.39,6-3.55A1.18,1.18,0,0,0,27,47c0-2.89,0-5.79,0-8.68a3.44,3.44,0,0,1,1.62-3.17c1.47-1,2.89-2,4.29-3.13a1.46,1.46,0,0,0,.51-1q.07-3.64,0-7.28a3.39,3.39,0,0,1,1.56-3.11c2-1.38,3.93-2.83,5.88-4.28a1.1,1.1,0,0,0,.47-.71c0-2.22,0-4.43,0-6.76H38.86c-.89,0-1.46-.47-1.48-1.17s.55-1.19,1.43-1.21,1.61,0,2.5,0c0-.89,0-1.69,0-2.49,0-1,.44-1.51,1.21-1.51S43.7,3,43.72,4c0,.76,0,1.51,0,2.27,0,0,0,.09.11.22h2.21c1,0,1.61.48,1.58,1.23S47,8.83,46.08,8.84L44,8.86a.94.94,0,0,0-.25.09c0,1.2,0,2.44,0,3.69,0,1.09-.31,2.35.13,3.23s1.64,1.37,2.52,2c1.28.94,2.55,1.89,3.86,2.8a3.09,3.09,0,0,1,1.41,2.79c0,2.42,0,4.85,0,7.27a1.46,1.46,0,0,0,.67,1.36c1.48,1,2.91,2.12,4.38,3.16a3,3,0,0,1,1.4,2.64c0,.67,0,1.35,0,2a1.13,1.13,0,0,1-1.16,1.21,1.21,1.21,0,0,1-1.21-1.26,1.92,1.92,0,0,1,0-.24C56,38,55.21,37,53.88,36.13c-3.59-2.47-7.08-5.08-10.58-7.67a1.1,1.1,0,0,0-1.56,0Q35.89,32.78,30,37a1.35,1.35,0,0,0-.65,1.22q0,20.61,0,41.23c0,.23,0,.46,0,.73h6.73V78.71c0-3.16,0-6.32,0-9.47a10.62,10.62,0,0,1,3.68-8.15c.5-.45,1-.89,1.54-1.32a1.52,1.52,0,0,1,2-.16c2.68,1.88,4.79,4.2,5.42,7.55a13.73,13.73,0,0,1,.22,2.4c0,3.52,0,7,0,10.62h6.76V45.42a6.77,6.77,0,0,1,0-.78,1.25,1.25,0,0,1,1.19-1.14,1.17,1.17,0,0,1,1.16,1.15,18.57,18.57,0,0,1,0,2.11,1,1,0,0,0,.59,1.06c4.16,2.53,8.29,5.12,12.46,7.63A3.61,3.61,0,0,1,73,58.91c-.09,6.78-.11,13.56-.16,20.34v1c2.18,0,4.29,0,6.39,0,.9,0,1.51.71,1.23,1.46-.12.34-.47.59-.72.88Zm65.2-2.39c0-.27.05-.49.05-.72q.06-10.41.13-20.82A1.14,1.14,0,0,0,70,57.55c-3.72-2.27-7.42-4.56-11.13-6.83-.21-.13-.44-.25-.73-.41V80.2Zm-23.93,0c0-3.87.08-7.65,0-11.42A8.32,8.32,0,0,0,42.43,62a9,9,0,0,0-4,7.91c.06,3.16,0,6.31,0,9.46v.84Zm2.73-50.33c0-2.34,0-4.51,0-6.69a.83.83,0,0,0-.37-.54c-2-1.45-3.95-2.9-5.95-4.31a.85.85,0,0,0-.79,0c-2,1.41-4,2.86-6,4.31-.17.13-.39.36-.39.54,0,2.18,0,4.35,0,6.67l.73-.5,4.11-3a4.66,4.66,0,0,1,.94-.54,2.85,2.85,0,0,1,2.86.53C46,27.5,47.56,28.64,49.26,29.88Z"/><path d="M42.49,39.5a6.41,6.41,0,1,1-.06,12.81,6.41,6.41,0,0,1,.06-12.81Zm0,10.4a4,4,0,0,0,.12-8,4,4,0,1,0-.12,8Z"/></svg>