<svg id="Layer_1" data-name="Layer 1" xmlns="http://www.w3.org/2000/svg" viewBox="0 0 85.04 85.04"><path d="M27.35,77.46c0,.61,0,1.1,0,1.59A1.24,1.24,0,0,1,26,80.43H16.12c-.94,0-1.38-.47-1.4-1.41,0-.34,0-.68,0-1.12H6.09c-1,0-1.48-.44-1.48-1.49V59.19c0-1.08.44-1.5,1.55-1.5h8.56c0-.42,0-.8,0-1.18A1.21,1.21,0,0,1,16,55.17c3.34,0,6.69,0,10,0a1.2,1.2,0,0,1,1.29,1.28c0,.34,0,.69,0,1v1.08l3.77-.92V34.93H28.83c-1,0-1.47-.44-1.47-1.42q0-6.15,0-12.32c0-1,.46-1.41,1.48-1.41,3.39,0,6.79,0,10.18,0h1A9,9,0,0,1,37.8,11a8.57,8.57,0,0,1,3.71-5A9,9,0,0,1,53.9,8.8a8.93,8.93,0,0,1,7.52-4.19,8.62,8.62,0,0,1,6,2.26,9,9,0,0,1,.41,12.86c.3,0,.55,0,.8,0H78.79c1.25,0,1.64.39,1.64,1.65V33.28c0,1.26-.39,1.65-1.63,1.65H76.7c0,.24-.06.44-.06.64q0,10.18,0,20.38a.77.77,0,0,0,.49.84,5.06,5.06,0,0,1,.31,9L62.28,74.55c-1.89,1.09-3.79,2.16-5.67,3.27a9.65,9.65,0,0,1-5,1.36c-5.95,0-11.9-.05-17.84,0a10.92,10.92,0,0,1-5.53-1.32C28,77.74,27.71,77.63,27.35,77.46Zm0-16.24c0,4.36,0,8.67,0,13a.59.59,0,0,0,.2.46c1.79.86,3.46,2,5.58,2,6.21,0,12.42,0,18.64,0,.31,0,.63,0,.94-.07a11.06,11.06,0,0,0,4.21-1.89q9.57-5.5,19.12-11a2.52,2.52,0,0,0,1.12-3.5,2.55,2.55,0,0,0-3.57-.88q-6.09,3.5-12.15,7A1,1,0,0,0,61,67a5,5,0,0,1-6.47,4.76c-2-.52-4.06-1.08-6.09-1.62-2.89-.78-5.78-1.55-8.66-2.34-.91-.25-1.3-.86-1.09-1.61s.88-1.07,1.84-.81c4.85,1.29,9.69,2.6,14.54,3.86a3.61,3.61,0,0,0,1.76,0,2.33,2.33,0,0,0,1.65-2.5,2.44,2.44,0,0,0-2-2.28l-17-4.58a9.47,9.47,0,0,0-5-.47C32.14,60,29.8,60.61,27.35,61.22ZM60.24,64l.68-.37c3.57-2.06,7.14-4.14,10.72-6.18.76-.44,1.58-.79,2.43-1.21V35H59v1c0,8.36,0,16.73,0,25.1A2.91,2.91,0,0,0,60.24,64ZM48.82,35H33.71V57c2.63-.85,5,0,7.47.69l7.64,2Zm2.54-12.66V59.66a1.26,1.26,0,0,0,0,.39c.08.17.18.41.32.45,1.55.44,3.11.84,4.69,1.26V22.33Zm-21.42,0v10H48.8v-10ZM77.85,32.38v-10H59v10ZM24.79,77.87V57.73H17.3V77.87ZM52.51,19.64c0-2.41.19-4.84,0-7.23A6.12,6.12,0,0,0,46,7.14a6.36,6.36,0,0,0-6,6.07,6.13,6.13,0,0,0,5.25,6.39C47.66,19.84,50.11,19.64,52.51,19.64Zm2.78,0a70.72,70.72,0,0,0,7.28-.05,6.11,6.11,0,0,0,5.22-6.4,6.37,6.37,0,0,0-6.05-6,6.11,6.11,0,0,0-6.4,5.22A70.72,70.72,0,0,0,55.29,19.64ZM14.66,75.35V60.27H7.17V75.35Z"/><path d="M19.78,73.45c0-.24,0-.47,0-.71a1.26,1.26,0,0,1,2.51,0,12.16,12.16,0,0,1,0,1.35,1.26,1.26,0,1,1-2.51,0c0-.21,0-.42,0-.63Z"/></svg>